<?xml version="1.0" encoding="utf-8"?>
<!-- Generator: Adobe Illustrator 24.2.3, SVG Export Plug-In . SVG Version: 6.00 Build 0)  -->
<svg version="1.1" id="Layer_1" xmlns="http://www.w3.org/2000/svg" xmlns:xlink="http://www.w3.org/1999/xlink" x="0px" y="0px"
	 viewBox="0 0 181.8 65.5" style="enable-background:new 0 0 181.8 65.5;" xml:space="preserve">
<style type="text/css">
	.st0{fill:#005BAA;}
	.st1{fill:#0DB14B;}
</style>
<path class="st0" d="M63.1,16.5c0.9,1,1.6,2.1,2.1,3.4c1.1,2.8,1.1,6,0,8.8c-0.5,1.3-1.2,2.4-2.1,3.4c-1.8,1.9-4.3,2.9-6.9,2.8
	c-1.3,0-2.7-0.3-3.9-0.8c-1.2-0.5-2.2-1.3-3.1-2.2c-0.9-1-1.6-2.1-2-3.4c-0.5-1.3-0.7-2.8-0.7-4.2c0-1.5,0.3-3,0.8-4.4
	c0.5-1.3,1.2-2.4,2.1-3.4c0.9-0.9,1.9-1.7,3.1-2.1c1.2-0.5,2.4-0.7,3.7-0.7c1.3,0,2.6,0.3,3.8,0.8C61.2,14.9,62.3,15.6,63.1,16.5z
	 M61,30.9c0.5-0.9,0.9-1.9,1.2-2.9c0.2-1.2,0.4-2.5,0.4-3.7c0-1.3-0.1-2.6-0.4-3.8c-0.2-1.1-0.6-2.1-1.2-3c-0.5-0.8-1.2-1.4-2-1.9
	c-0.8-0.5-1.8-0.7-2.7-0.7c-1,0-2,0.3-2.9,0.8c-0.8,0.5-1.5,1.2-2,2.1c-0.5,0.9-0.9,1.9-1.1,3c-0.2,1.2-0.4,2.4-0.4,3.6
	c0,1.2,0.1,2.5,0.4,3.7c0.2,1.1,0.6,2.1,1.2,3c0.5,0.8,1.1,1.5,1.9,2c0.8,0.5,1.8,0.7,2.8,0.7c1,0,1.9-0.2,2.8-0.7
	C59.8,32.5,60.5,31.7,61,30.9z"/>
<path class="st0" d="M83.6,19.1c0,1-0.2,1.9-0.6,2.8c-0.4,0.8-1,1.5-1.7,2c-0.7,0.5-1.5,0.9-2.4,1.2c-0.9,0.2-1.9,0.4-2.8,0.4h-2.3
	v6.2c0,0.3,0.1,0.6,0.2,0.9c0.1,0.3,0.3,0.4,0.7,0.6c0.3,0.1,0.6,0.2,0.9,0.2c0.4,0.1,0.8,0.1,1.2,0.1v1h-8.7v-1
	c0.2,0,0.6-0.1,1-0.1c0.3,0,0.6-0.1,0.9-0.2c0.3-0.1,0.5-0.3,0.6-0.5c0.1-0.3,0.2-0.6,0.2-0.9V17c0-0.3,0-0.6-0.1-0.9
	c-0.1-0.3-0.4-0.5-0.7-0.6l-1.1-0.3c-0.3-0.1-0.6-0.1-0.9-0.1v-1h9.3c1.6-0.1,3.3,0.4,4.6,1.4C83,16.4,83.7,17.7,83.6,19.1z
	 M79.3,22.6c0.3-0.4,0.5-0.9,0.6-1.4c0.1-0.4,0.2-0.9,0.2-1.3c0-0.6-0.1-1.1-0.2-1.7c-0.1-0.5-0.3-1.1-0.7-1.5
	c-0.3-0.4-0.8-0.8-1.3-1c-0.6-0.3-1.3-0.4-2-0.4h-2v9h1.5c0.9,0,1.7-0.2,2.5-0.5C78.4,23.5,78.9,23.1,79.3,22.6z"/>
<path class="st0" d="M105.3,34.4h-5.5c-1.2-1.9-2.3-3.5-3.3-4.9s-2-2.8-3.2-4.3h-2.1v6.4c0,0.3,0.1,0.6,0.2,0.9
	c0.1,0.3,0.3,0.4,0.7,0.6c0.3,0.1,0.6,0.2,0.9,0.2c0.4,0.1,0.7,0.1,1.1,0.1v1h-8.6v-1c0.2,0,0.6-0.1,1-0.1c0.3,0,0.6-0.1,0.9-0.2
	c0.3-0.1,0.5-0.3,0.6-0.5c0.1-0.3,0.2-0.6,0.2-0.9V16.9c0-0.3,0-0.6-0.1-0.9c-0.1-0.3-0.4-0.5-0.7-0.6c-0.3-0.1-0.6-0.2-0.9-0.2
	c-0.3-0.1-0.7-0.1-1-0.1v-1h9.4c0.8,0,1.6,0.1,2.4,0.3c0.7,0.2,1.4,0.5,2,0.9c1.3,0.8,2,2.2,1.9,3.7c0,0.7-0.1,1.4-0.4,2.1
	c-0.2,0.6-0.6,1.2-1.1,1.6c-0.4,0.4-0.9,0.8-1.5,1.1c-0.6,0.3-1.3,0.6-2,0.8c1,1.3,1.8,2.4,2.5,3.4s1.5,2,2.4,3.3
	c0.3,0.5,0.7,0.9,1.1,1.3c0.3,0.3,0.6,0.5,1,0.7c0.3,0.1,0.6,0.2,0.9,0.3c0.3,0.1,0.6,0.1,0.9,0.1v0.7L105.3,34.4z M97.7,19.3
	c0-1.1-0.4-2.1-1.1-2.9c-0.8-0.8-1.9-1.2-3-1.1h-2.4V24h1.9c1.2,0,2.4-0.4,3.3-1.3C97.3,21.8,97.8,20.6,97.7,19.3z"/>
<path class="st0" d="M38.8,24.5c0-0.7-0.1-1.5-0.2-2.2c-0.1-0.3-0.3-0.5-0.4-0.8c-2.6-4-7.8-5.4-12.1-3.4c-4.3,2.1-6.5,6.9-5.3,11.5
	c0.8,2.7,2.7,5,5.3,6.1c1.7,0.7,3.6,1,5.4,0.7l1.1-0.3C36.5,33.5,38.9,29.2,38.8,24.5"/>
<path class="st0" d="M16.4,20.8c-1.2,3.7-0.5,7.8,1.8,11c-0.9-1.7-1.5-3.5-1.6-5.4c-0.2-6,3.7-11.3,9.5-12.9c2.4-0.7,5-0.7,7.5-0.1
	c-0.8-0.7-1.8-1.3-2.8-1.7c-0.4,0-0.7-0.1-1.1-0.1C23.8,11.6,18.1,15.3,16.4,20.8"/>
<path class="st0" d="M20.2,32c-2.6-5.3-0.7-11.7,4.3-14.7c4.1-2.5,9.4-2,13,1.2c-0.5-0.9-1-1.8-1.6-2.7c-4.8-2.6-10.7-1.8-14.6,2
	c-4,4.1-4.3,10.5-0.6,14.9C20.5,32.6,20.4,32.3,20.2,32"/>
<path class="st0" d="M20.4,35.9c-4.9-3.2-7.2-9.2-5.7-14.8c1.6-5.5,6.1-9.6,11.7-10.7c-0.6-0.1-1.1-0.1-1.7-0.1
	c-7.8,0-14.1,6.3-14.1,14.1S17,38.5,24.7,38.5c1,0,2-0.1,3-0.3C25.1,38.2,22.6,37.4,20.4,35.9"/>
<path class="st0" d="M57.4,50.7h-1.6v-10h5.6v1.4h-4v3.1h3.8v1.4h-3.8V50.7z"/>
<path class="st0" d="M70,46.9c0.1,1.1-0.3,2.1-1,2.9c-0.7,0.7-1.6,1.1-2.6,1c-0.7,0-1.3-0.2-1.9-0.5c-0.6-0.3-1-0.8-1.3-1.4
	c-0.3-0.7-0.4-1.4-0.4-2.1c-0.1-1,0.3-2.1,0.9-2.9c1.5-1.4,3.8-1.3,5.3,0.1C69.7,44.8,70.1,45.9,70,46.9z M64.3,41.1
	c0-0.2,0.1-0.4,0.2-0.6c0.2-0.1,0.4-0.2,0.6-0.2c0.2,0,0.4,0.1,0.6,0.2c0.1,0.2,0.2,0.4,0.2,0.6c0,0.2-0.1,0.4-0.2,0.6
	c-0.2,0.1-0.4,0.2-0.6,0.2c-0.2,0-0.4-0.1-0.6-0.2C64.4,41.5,64.3,41.3,64.3,41.1z M64.5,46.9c0,1.7,0.6,2.6,1.9,2.6
	s1.9-0.9,1.9-2.6s-0.6-2.6-1.9-2.6c-0.6-0.1-1.2,0.2-1.5,0.7C64.7,45.6,64.5,46.3,64.5,46.9z M67,41.1c0-0.2,0.1-0.4,0.2-0.6
	c0.2-0.1,0.4-0.2,0.6-0.2c0.2,0,0.4,0.1,0.6,0.2c0.1,0.2,0.2,0.4,0.2,0.6c0,0.2-0.1,0.4-0.2,0.6c-0.1,0.2-0.3,0.2-0.6,0.2
	c-0.2,0-0.4-0.1-0.6-0.2C67.1,41.5,67,41.3,67,41.1z"/>
<path class="st0" d="M76,43c0.3,0,0.5,0,0.8,0.1l-0.2,1.4c-0.2-0.1-0.5-0.1-0.7-0.1c-1.1-0.1-2.1,0.8-2.2,1.9c0,0.1,0,0.2,0,0.3v4
	h-1.6V43h1.3l0.2,1.3h0.1c0.3-0.4,0.6-0.8,1-1.1C75.2,43.1,75.6,43,76,43z"/>
<path class="st0" d="M81.5,50.8c-1.9,0.2-3.6-1.2-3.8-3.1c0-0.2,0-0.5,0-0.7c-0.1-1,0.3-2.1,0.9-2.9c1.3-1.4,3.5-1.5,4.9-0.2
	c0.6,0.7,1,1.6,0.9,2.5v0.9h-5c0,0.6,0.2,1.2,0.6,1.7c0.4,0.4,1,0.6,1.6,0.6c0.4,0,0.8,0,1.2-0.1c0.4-0.1,0.8-0.2,1.2-0.4v1.3
	c-0.4,0.2-0.8,0.3-1.2,0.4H81.5z M81.2,44.2c-0.5,0-0.9,0.2-1.2,0.5c-0.3,0.4-0.5,0.9-0.6,1.4h3.4c0-0.5-0.2-1-0.5-1.4
	C82.1,44.4,81.7,44.2,81.2,44.2z"/>
<path class="st0" d="M89.9,49.5c0.4,0,0.8-0.1,1.2-0.2v1.2c-0.2,0.1-0.5,0.1-0.7,0.2c-0.3,0.1-0.6,0.1-0.9,0.1
	c-1.1,0.1-2.2-0.7-2.3-1.8c0-0.2,0-0.4,0-0.6v-4.1h-1v-0.7l1.1-0.6l0.5-1.6h1v1.7H91v1.2h-2.2v4c0,0.3,0.1,0.7,0.3,0.9
	C89.4,49.4,89.6,49.5,89.9,49.5z"/>
<path class="st0" d="M98.2,50.7l-0.3-1.1h-0.1c-0.3,0.4-0.6,0.7-1.1,0.9c-0.4,0.2-0.9,0.2-1.4,0.2c-1.1,0.1-2.2-0.7-2.3-1.9
	c0-0.1,0-0.3,0-0.4c0-0.7,0.3-1.4,0.9-1.8c0.8-0.4,1.7-0.7,2.6-0.6h1.3v-0.4c0-0.4-0.1-0.8-0.3-1.1c-0.2-0.3-0.6-0.4-1-0.4
	c-0.4,0-0.7,0.1-1.1,0.2c-0.4,0.1-0.7,0.2-1,0.4l-0.5-1.1c0.4-0.2,0.9-0.4,1.3-0.5c0.5-0.1,0.9-0.2,1.4-0.2c0.8-0.1,1.6,0.2,2.2,0.6
	c0.5,0.5,0.8,1.3,0.7,2v5.2H98.2z M95.8,49.6c0.5,0,1-0.2,1.4-0.5c0.4-0.4,0.6-0.9,0.5-1.4V47h-1c-0.6,0-1.2,0.1-1.7,0.4
	c-0.3,0.2-0.5,0.6-0.5,1c0,0.3,0.1,0.6,0.3,0.8C95.1,49.5,95.5,49.6,95.8,49.6z"/>
<path class="st0" d="M108.8,43.1V44l-1.3,0.2l0.3,0.6c0.1,0.2,0.1,0.5,0.1,0.7c0,0.7-0.3,1.4-0.8,1.8c-0.6,0.5-1.4,0.7-2.2,0.7
	c-0.2,0-0.5,0-0.7-0.1c-0.3,0.2-0.5,0.5-0.5,0.8c0,0.2,0.1,0.3,0.2,0.4c0.3,0.1,0.6,0.1,0.9,0.1h1.3c0.7,0,1.3,0.1,1.9,0.5
	c0.4,0.4,0.6,0.9,0.6,1.5c0,0.8-0.4,1.6-1.1,2c-0.9,0.5-2,0.8-3.1,0.7c-0.8,0-1.6-0.2-2.4-0.5c-0.5-0.4-0.8-1-0.8-1.6
	c0-0.4,0.1-0.9,0.4-1.2c0.3-0.3,0.8-0.6,1.2-0.7c-0.2-0.1-0.4-0.2-0.5-0.4c-0.1-0.2-0.2-0.4-0.2-0.6c0-0.2,0.1-0.5,0.2-0.7
	c0.2-0.2,0.4-0.4,0.7-0.6c-0.4-0.2-0.7-0.5-1-0.8c-0.2-0.4-0.4-0.8-0.4-1.3c0-0.7,0.3-1.4,0.8-1.9c0.6-0.5,1.4-0.8,2.2-0.7h0.7
	c0.2,0,0.3,0.1,0.5,0.1L108.8,43.1L108.8,43.1z M102.8,51.8c0,0.3,0.2,0.6,0.5,0.8c0.4,0.2,0.8,0.3,1.3,0.3c0.7,0.1,1.4-0.1,2-0.4
	c0.4-0.2,0.6-0.6,0.6-1c0-0.3-0.1-0.6-0.4-0.7c-0.4-0.1-0.9-0.2-1.3-0.2h-1.2c-0.7-0.1-1.3,0.3-1.5,1
	C102.9,51.6,102.8,51.7,102.8,51.8z M103.5,45.6c0,0.4,0.1,0.8,0.4,1.1c0.2,0.3,0.6,0.4,1,0.4c0.9,0,1.4-0.5,1.4-1.5
	c0-0.4-0.1-0.8-0.3-1.1c-0.2-0.3-0.6-0.4-1-0.4c-0.4,0-0.8,0.1-1.1,0.4C103.6,44.8,103.5,45.2,103.5,45.6z"/>
<path class="st0" d="M116.1,48.5c0,0.7-0.3,1.3-0.8,1.7c-0.7,0.4-1.5,0.7-2.3,0.6c-0.8,0-1.6-0.2-2.4-0.5v-1.4
	c0.8,0.4,1.6,0.6,2.5,0.6c1,0,1.5-0.3,1.5-0.9c0-0.2-0.1-0.4-0.2-0.5c-0.1-0.2-0.3-0.3-0.5-0.4l-1-0.5c-0.7-0.2-1.3-0.5-1.8-1
	c-0.7-0.8-0.7-1.9,0.1-2.6c0.1-0.1,0.1-0.1,0.2-0.2c0.6-0.4,1.4-0.6,2.1-0.5c0.9,0,1.7,0.2,2.5,0.5l-0.5,1.2
	c-0.7-0.3-1.4-0.5-2.1-0.5c-0.8,0-1.3,0.2-1.3,0.7c0,0.2,0.1,0.4,0.3,0.6c0.4,0.3,0.9,0.5,1.4,0.7c0.5,0.2,1,0.4,1.4,0.7
	c0.3,0.2,0.5,0.4,0.6,0.7C116,47.8,116.1,48.2,116.1,48.5z"/>
<path class="st0" d="M120,50.7h-1.6V40h1.6V50.7z"/>
<path class="st0" d="M127.6,50.7l-0.3-1.1h-0.1c-0.3,0.4-0.6,0.7-1.1,0.9c-0.4,0.2-0.9,0.2-1.4,0.2c-1.1,0.1-2.2-0.7-2.3-1.9
	c0-0.1,0-0.3,0-0.4c0-0.7,0.3-1.4,0.9-1.8c0.8-0.4,1.7-0.7,2.6-0.6h1.3v-0.4c0-0.4-0.1-0.8-0.3-1.1c-0.2-0.3-0.6-0.4-1-0.4
	c-0.4,0-0.7,0.1-1.1,0.2c-0.4,0.1-0.7,0.2-1,0.4l-0.5-1.1c0.4-0.2,0.9-0.4,1.3-0.5c0.5-0.1,0.9-0.2,1.4-0.2c0.8-0.1,1.6,0.2,2.2,0.6
	c0.5,0.5,0.8,1.3,0.7,2v5.2H127.6z M125.2,49.6c0.5,0,1-0.2,1.4-0.5c0.4-0.4,0.6-0.9,0.5-1.4V47h-1c-0.6,0-1.2,0.1-1.7,0.4
	c-0.3,0.2-0.5,0.6-0.5,1c0,0.3,0.1,0.6,0.3,0.8C124.5,49.5,124.9,49.6,125.2,49.6z M127.5,40.6c0,0.4-0.1,0.8-0.4,1.1
	c-0.7,0.5-1.7,0.5-2.4,0c-0.3-0.3-0.4-0.7-0.4-1.1c0-0.4,0.1-0.8,0.4-1.1c0.7-0.5,1.7-0.5,2.4,0C127.4,39.8,127.5,40.2,127.5,40.6
	L127.5,40.6z M126.5,40.6c0-0.4-0.3-0.7-0.7-0.7c-0.4,0-0.7,0.3-0.7,0.7c0,0,0,0,0,0c0,0.5,0.2,0.7,0.7,0.7c0.2,0,0.4-0.1,0.5-0.2
	C126.5,41.1,126.5,40.9,126.5,40.6L126.5,40.6z"/>
<path class="st0" d="M138.2,50.7h-1.6v-4.6c0.1-0.5-0.1-0.9-0.4-1.3c-0.3-0.3-0.7-0.5-1.1-0.4c-0.6-0.1-1.1,0.2-1.5,0.6
	c-0.4,0.6-0.5,1.3-0.5,2v3.7h-1.6v-7.6h1.3l0.2,1h0.1c0.2-0.4,0.6-0.7,1-0.8c0.4-0.2,0.9-0.3,1.4-0.3c1.8,0,2.7,0.9,2.7,2.8
	L138.2,50.7L138.2,50.7z"/>
<g>
	<path class="st1" d="M147.4,42c0.3-0.1,0.6,0,0.9,0.1c0.2,0.2,0.4,0.5,0.5,0.8v0.6h-0.5c-0.2,0-0.4,0.1-0.6,0.1
		c-0.5,0.1-1,0.2-1.4,0.4c-0.4,0.2-0.9,0.4-1.4,0.5c-0.3,1.2-0.4,2.3-0.5,3.5c-0.1,1.1-0.1,2.1-0.1,3.1c-0.4,0-0.8-0.1-1.1-0.3
		c-0.4-0.2-0.7-0.5-1-0.8c0-0.2,0.1-0.4,0.1-0.7s0.1-0.6,0.2-1s0.2-0.9,0.3-1.5s0.2-1.3,0.4-2.1c-0.4-0.1-0.8-0.3-1.1-0.6
		c0-0.1,0.2-0.2,0.4-0.3c0.3-0.2,0.6-0.3,0.9-0.4c0.1-0.5,0.1-0.9,0.2-1.2c0.1-0.3,0.1-0.7,0.1-1c0-0.3,0.1-0.6,0.1-0.9v-1h-0.1
		c-0.4,0.1-0.8,0.1-1.1-0.1c-0.3-0.1-0.5-0.4-0.5-0.7v-0.6c0.2,0,0.4-0.1,0.6-0.1c0.3,0,0.5-0.1,0.8-0.2c0.7-0.1,1.3-0.3,1.9-0.4
		s1.1-0.3,1.6-0.4s0.9-0.3,1.2-0.4c0.3-0.1,0.5-0.2,0.8-0.2c0.3-0.1,0.6,0,0.7,0.3c0.3,0.3,0.5,0.6,0.7,1c-0.4,0-0.6,0.1-0.9,0.1
		s-0.4,0.1-0.6,0.1c-0.5,0.1-1,0.2-1.5,0.4c-0.5,0.1-0.9,0.3-1.3,0.4c0,0.1-0.1,0.3-0.1,0.4c-0.1,0.2-0.1,0.5-0.2,0.7
		c-0.1,0.4-0.2,0.8-0.3,1.2c-0.1,0.5-0.2,1.1-0.4,1.8c0.4-0.2,0.8-0.3,1.2-0.4C146.7,42.1,147.1,42,147.4,42z"/>
	<path class="st1" d="M150.6,47.3c-0.1-0.7-0.1-1.4-0.1-2.1c0.1-0.9,0.2-2,0.3-3.2c0.2-1.7,0.6-3.4,1-5c0.2-1.1,0.6-2.2,1.2-3.2
		c0.2,0,0.3,0,0.5,0.1c0.2,0,0.4,0.1,0.6,0.2c0.2,0.1,0.4,0.1,0.6,0.2s0.3,0.1,0.3,0.2c-0.6,1.2-1.2,2.4-1.6,3.7
		c-0.4,1.4-0.7,2.8-1,4.3c-0.2,1.2-0.3,2.5-0.3,3.7c-0.1,0.9,0,1.7,0.2,2.6c0,0.1,0,0.2,0.1,0.3v0.1H152c-0.1,0-0.2-0.1-0.3-0.2
		l-0.2-0.2c-0.1-0.1-0.2-0.1-0.3-0.2s-0.2-0.2-0.3-0.5C150.7,48,150.6,47.7,150.6,47.3z"/>
	<path class="st1" d="M159,39.7c0.1,0.6,0.1,1.2,0,1.8c-0.1,0.5-0.3,1-0.6,1.4c-0.3,0.5-0.7,0.9-1.1,1.3c-0.5,0.4-1.1,0.8-1.7,1.2
		v0.4c0,0.1,0.1,0.3,0.1,0.4s0.1,0.3,0.2,0.4l0.3,0.3c0.1,0.1,0.2,0.1,0.4,0c0.3-0.1,0.6-0.2,0.8-0.4c0.3-0.2,0.5-0.4,0.7-0.6
		c0.2-0.2,0.4-0.5,0.6-0.8c0.1-0.2,0.3-0.5,0.5-0.7c0.1,0.1,0.2,0.1,0.3,0.2c-0.3,0.7-0.8,1.3-1.3,1.9c-0.4,0.5-1,0.9-1.5,1.2
		c-0.7,0.1-1.4-0.1-1.9-0.5c-0.5-0.4-0.8-0.9-1-1.5c-0.1-0.5-0.1-0.9-0.1-1.4c0-0.5,0.1-0.9,0.2-1.4c0.1-0.5,0.3-1,0.5-1.4
		c0.2-0.4,0.5-0.8,0.8-1.2c0.3-0.3,0.6-0.6,0.9-0.9c0.3-0.2,0.6-0.4,1-0.5C157.9,38.9,158.5,39.2,159,39.7z M158,40.4
		c-0.3,0.1-0.6,0.3-0.8,0.5c-0.3,0.3-0.5,0.6-0.7,1c-0.2,0.4-0.4,0.8-0.5,1.3l-0.3,1.5c0.7-0.5,1.3-1.2,1.8-2
		C158,42,158.2,41.2,158,40.4z"/>
	<path class="st1" d="M166.1,45.1c-0.1,0.2-0.3,0.5-0.5,0.6c-0.2,0.2-0.4,0.3-0.7,0.4c-0.3-0.2-0.6-0.5-0.8-0.8
		c-0.3-0.4-0.6-0.8-0.9-1.2c-0.5,0.6-0.9,1.2-1.4,1.7s-0.9,1-1.3,1.4c-0.1,0-0.2,0-0.3-0.1c-0.1-0.1-0.2-0.2-0.2-0.4
		c0.2-0.2,0.4-0.4,0.7-0.6l0.8-0.8c0.3-0.3,0.5-0.6,0.7-0.9l0.6-0.9c-0.3-0.4-0.5-0.8-0.8-1.2c-0.3-0.4-0.5-0.8-0.7-1.3
		c-0.2-0.4-0.4-0.7-0.5-1.1c-0.1-0.3-0.2-0.5-0.3-0.8v-0.3c0-0.1,0.1-0.1,0.3-0.1h1.8V39c0,0.1,0,0.3,0.1,0.4
		c0.1,0.4,0.2,0.9,0.4,1.3c0.2,0.4,0.4,0.9,0.6,1.4c0.3-0.6,0.6-1.3,0.9-2c0.3-0.8,0.6-1.6,0.7-2.5c0.2,0,0.5,0,0.7,0.1
		c0.2,0.1,0.4,0.1,0.4,0.3c-0.1,0.7-0.3,1.4-0.6,2.1c-0.5,1-1,2-1.6,2.9c0.2,0.4,0.5,0.8,0.8,1.2C165.5,44.4,165.9,44.7,166.1,45.1z
		"/>
	<path class="st1" d="M142.4,55.2c10.3-0.4,20.3-3.3,29.3-8.4c0.3-0.2-0.3-2.2,0-2.4c-9,5.1-19,8-29.3,8.4V55.2z"/>
</g>
</svg>
