<?xml version="1.0" encoding="UTF-8"?>
<svg id="_Слой_1" data-name="Слой 1" xmlns="http://www.w3.org/2000/svg" xmlns:xlink="http://www.w3.org/1999/xlink" viewBox="0 0 1104 1004">
  <defs>
    <style>
      .cls-1 {
        fill: #fff;
      }

      .cls-2 {
        clip-path: url(#clippath-2);
      }

      .cls-3 {
        clip-path: url(#clippath-1);
      }

      .cls-4 {
        clip-path: url(#clippath);
      }

      .cls-5, .cls-6 {
        fill: none;
      }

      .cls-7 {
        clip-path: url(#clippath-3);
      }

      .cls-6 {
        stroke: #000;
        stroke-miterlimit: 10;
        stroke-width: 20px;
      }
    </style>
    <clipPath id="clippath">
      <circle class="cls-5" cx="950" cy="143" r="143"/>
    </clipPath>
    <clipPath id="clippath-1">
      <circle class="cls-5" cx="950" cy="696" r="143"/>
    </clipPath>
    <clipPath id="clippath-2">
      <circle class="cls-5" cx="163" cy="143" r="143"/>
    </clipPath>
    <clipPath id="clippath-3">
      <circle class="cls-5" cx="163" cy="696" r="143"/>
    </clipPath>
  </defs>
  <g>
    <circle class="cls-1" cx="556.03" cy="419.33" r="151.17" transform="translate(-133.65 515.99) rotate(-45)"/>
    <path d="M556.03,275.66c38.38,0,74.45,14.94,101.59,42.08,27.14,27.14,42.08,63.21,42.08,101.59s-14.94,74.45-42.08,101.59-63.21,42.08-101.59,42.08-74.45-14.94-101.59-42.08-42.08-63.21-42.08-101.59,14.94-74.45,42.08-101.59c27.14-27.14,63.21-42.08,101.59-42.08m0-15c-87.63,0-158.67,71.04-158.67,158.67s71.04,158.67,158.67,158.67,158.67-71.04,158.67-158.67-71.04-158.67-158.67-158.67h0Z"/>
  </g>
  <path d="M662.11,437.9v-33.22l-25.68-5.02c-1.29-5.47-3.12-10.73-5.43-15.72l18.5-26.42-22.88-24.09-25.29,16.09c-6.82-4.49-14.33-8-22.36-10.34l-5.79-28.51h-33.22l-5.48,28.01c-8.76,2.33-16.94,6.06-24.3,10.93l-25.15-16-22.88,24.09,18.45,26.35c-2.32,5.02-4.15,10.3-5.43,15.8l-25.64,5.01v33.22l27.3,5.54c2.07,6.57,4.94,12.78,8.49,18.52l-15.87,23.59,23.49,23.49,25.26-16.74c4.79,2.45,9.86,4.44,15.14,5.93l5.02,28.46,33.21,.86,6.51-29.26c5.41-1.51,10.61-3.55,15.51-6.07l25.11,16.64,23.49-23.49-15.82-23.5c3.56-5.78,6.43-12.02,8.49-18.62l27.24-5.53Zm-106.28,28.13c-26.14,0-47.33-21.19-47.33-47.33s21.19-47.33,47.33-47.33,47.33,21.19,47.33,47.33-21.19,47.33-47.33,47.33Z"/>
  <g class="cls-4">
    <circle cx="950.5" cy="85.5" r="73.5"/>
    <circle cx="945.5" cy="292.5" r="158.5"/>
  </g>
  <g class="cls-3">
    <circle cx="950.5" cy="638.5" r="73.5"/>
    <circle cx="945.5" cy="845.5" r="158.5"/>
  </g>
  <g class="cls-2">
    <circle cx="163.5" cy="85.5" r="73.5"/>
    <circle cx="158.5" cy="292.5" r="158.5"/>
  </g>
  <g class="cls-7">
    <circle cx="163.5" cy="638.5" r="73.5"/>
    <circle cx="158.5" cy="845.5" r="158.5"/>
  </g>
  <polyline class="cls-6" points="556.03 241.62 556.03 87 768.72 87"/>
  <polyline class="cls-6" points="739.62 418.7 957.15 418.7 957.15 541.87"/>
  <polyline class="cls-6" points="555.83 602 555.83 779.32 320 779.32"/>
  <polyline class="cls-6" points="163 318.21 163 419.33 370.43 419.33"/>
</svg>