<?xml version="1.0" encoding="UTF-8"?> <!-- Generator: Adobe Illustrator 24.3.0, SVG Export Plug-In . SVG Version: 6.00 Build 0) --> <svg xmlns="http://www.w3.org/2000/svg" xmlns:xlink="http://www.w3.org/1999/xlink" version="1.1" id="Layer_1" x="0px" y="0px" viewBox="0 0 60 60" style="enable-background:new 0 0 60 60;" xml:space="preserve"> <style type="text/css"> .st0{display:none;} .st1{display:inline;fill:#0C445C;} .st2{font-family:'ArialRoundedMTBold';} .st3{font-size:32px;} .st4{display:inline;fill:none;stroke:#0C445C;stroke-width:8;} .st5{fill:none;stroke:#0A455C;stroke-width:3;stroke-linecap:round;stroke-linejoin:round;stroke-miterlimit:10;} .st6{fill:none;stroke:#0A455C;stroke-width:3;stroke-miterlimit:10;} .st7{fill:#0A455C;} </style> <g class="st0"> <text transform="matrix(1 0 0 1 12 41)" class="st1 st2 st3">20</text> <circle class="st4" cx="30" cy="30" r="26"></circle> </g> <rect x="3.3" y="12.9" class="st5" width="45.2" height="25.1"></rect> <path class="st5" d="M8,42.4c1.3,0.2,44.8,0,44.8,0V17.6"></path> <path class="st5" d="M12.5,46.9c1.3,0.2,44.8,0,44.8,0V22.1"></path> <circle class="st6" cx="25.7" cy="25.3" r="8.9"></circle> <g> <path class="st7" d="M23.5,25.6c0.2-0.3,0.3-0.5,0.5-0.7l1-1.2h1.7l-1.5,1.9l1.6,2.5h-1.7l-1-1.6l-0.5,0.4v1.2h-1.5V22h1.5v2.4 C23.5,24.9,23.5,25.3,23.5,25.6L23.5,25.6z"></path> <path class="st7" d="M29.9,23.6c0.1,0,0.3,0,0.4,0h0.1l-0.2,1.5c-0.1,0-0.3,0-0.5,0c-0.3,0-0.6,0.1-0.7,0.2s-0.2,0.4-0.2,0.7v2.2 h-1.6v-4.5h1.1l0.2,0.7h0.1c0.1-0.2,0.3-0.4,0.5-0.6S29.7,23.6,29.9,23.6z"></path> </g> </svg> 